<svg viewBox="0 0 100 100" xmlns="http://www.w3.org/2000/svg">
  <!-- current-wind-01 | topografia | vento | animar: deslocamento de fase rapido -->
  <defs>
    <style>
      :root { --vds-gold: #c9a15e; }
    </style>
  </defs>
  <g id="current" fill="none" stroke="var(--vds-gold, #c9a15e)" stroke-width="0.85" stroke-linecap="round" stroke-linejoin="round">
    <path id="c-1" d="M0 20 L2.27 21.66 L4.55 23.02 L6.82 23.84 L9.09 23.96 L11.36 23.37 L13.64 22.16 L15.91 20.57 L18.18 18.87 L20.45 17.38 L22.73 16.36 L25 16 L27.27 16.36 L29.55 17.38 L31.82 18.87 L34.09 20.57 L36.36 22.16 L38.64 23.37 L40.91 23.96 L43.18 23.84 L45.45 23.02 L47.73 21.66 L50 20 L52.27 18.34 L54.55 16.98 L56.82 16.16 L59.09 16.04 L61.36 16.63 L63.64 17.84 L65.91 19.43 L68.18 21.13 L70.45 22.62 L72.73 23.64 L75 24 L77.27 23.64 L79.55 22.62 L81.82 21.13 L84.09 19.43 L86.36 17.84 L88.64 16.63 L90.91 16.04 L93.18 16.16 L95.45 16.98 L97.73 18.34 L100 20" pathLength="1" opacity="0.5"/>
    <path id="c-2" d="M0 28.57 L2.27 30.23 L4.55 31.59 L6.82 32.41 L9.09 32.53 L11.36 31.94 L13.64 30.73 L15.91 29.14 L18.18 27.44 L20.45 25.95 L22.73 24.93 L25 24.57 L27.27 24.93 L29.55 25.95 L31.82 27.44 L34.09 29.14 L36.36 30.73 L38.64 31.94 L40.91 32.53 L43.18 32.41 L45.45 31.59 L47.73 30.23 L50 28.57 L52.27 26.91 L54.55 25.55 L56.82 24.73 L59.09 24.61 L61.36 25.21 L63.64 26.41 L65.91 28 L68.18 29.7 L70.45 31.19 L72.73 32.21 L75 32.57 L77.27 32.21 L79.55 31.19 L81.82 29.7 L84.09 28 L86.36 26.41 L88.64 25.21 L90.91 24.61 L93.18 24.73 L95.45 25.55 L97.73 26.91 L100 28.57" pathLength="1" opacity="1"/>
    <path id="c-3" d="M0 37.14 L2.27 38.8 L4.55 40.17 L6.82 40.98 L9.09 41.1 L11.36 40.51 L13.64 39.31 L15.91 37.71 L18.18 36.02 L20.45 34.52 L22.73 33.5 L25 33.14 L27.27 33.5 L29.55 34.52 L31.82 36.02 L34.09 37.71 L36.36 39.31 L38.64 40.51 L40.91 41.1 L43.18 40.98 L45.45 40.17 L47.73 38.8 L50 37.14 L52.27 35.48 L54.55 34.12 L56.82 33.3 L59.09 33.18 L61.36 33.78 L63.64 34.98 L65.91 36.57 L68.18 38.27 L70.45 39.76 L72.73 40.78 L75 41.14 L77.27 40.78 L79.55 39.76 L81.82 38.27 L84.09 36.57 L86.36 34.98 L88.64 33.78 L90.91 33.18 L93.18 33.3 L95.45 34.12 L97.73 35.48 L100 37.14" pathLength="1" opacity="0.5"/>
    <path id="c-4" d="M0 45.71 L2.27 47.38 L4.55 48.74 L6.82 49.55 L9.09 49.67 L11.36 49.08 L13.64 47.88 L15.91 46.28 L18.18 44.59 L20.45 43.09 L22.73 42.08 L25 41.71 L27.27 42.08 L29.55 43.09 L31.82 44.59 L34.09 46.28 L36.36 47.88 L38.64 49.08 L40.91 49.67 L43.18 49.55 L45.45 48.74 L47.73 47.38 L50 45.71 L52.27 44.05 L54.55 42.69 L56.82 41.88 L59.09 41.75 L61.36 42.35 L63.64 43.55 L65.91 45.15 L68.18 46.84 L70.45 48.33 L72.73 49.35 L75 49.71 L77.27 49.35 L79.55 48.33 L81.82 46.84 L84.09 45.15 L86.36 43.55 L88.64 42.35 L90.91 41.75 L93.18 41.88 L95.45 42.69 L97.73 44.05 L100 45.71" pathLength="1" opacity="1"/>
    <path id="c-5" d="M0 54.29 L2.27 55.95 L4.55 57.31 L6.82 58.12 L9.09 58.25 L11.36 57.65 L13.64 56.45 L15.91 54.85 L18.18 53.16 L20.45 51.67 L22.73 50.65 L25 50.29 L27.27 50.65 L29.55 51.67 L31.82 53.16 L34.09 54.85 L36.36 56.45 L38.64 57.65 L40.91 58.25 L43.18 58.12 L45.45 57.31 L47.73 55.95 L50 54.29 L52.27 52.62 L54.55 51.26 L56.82 50.45 L59.09 50.33 L61.36 50.92 L63.64 52.12 L65.91 53.72 L68.18 55.41 L70.45 56.91 L72.73 57.92 L75 58.29 L77.27 57.92 L79.55 56.91 L81.82 55.41 L84.09 53.72 L86.36 52.12 L88.64 50.92 L90.91 50.33 L93.18 50.45 L95.45 51.26 L97.73 52.62 L100 54.29" pathLength="1" opacity="0.5"/>
    <path id="c-6" d="M0 62.86 L2.27 64.52 L4.55 65.88 L6.82 66.7 L9.09 66.82 L11.36 66.22 L13.64 65.02 L15.91 63.43 L18.18 61.73 L20.45 60.24 L22.73 59.22 L25 58.86 L27.27 59.22 L29.55 60.24 L31.82 61.73 L34.09 63.43 L36.36 65.02 L38.64 66.22 L40.91 66.82 L43.18 66.7 L45.45 65.88 L47.73 64.52 L50 62.86 L52.27 61.2 L54.55 59.83 L56.82 59.02 L59.09 58.9 L61.36 59.49 L63.64 60.69 L65.91 62.29 L68.18 63.98 L70.45 65.48 L72.73 66.5 L75 66.86 L77.27 66.5 L79.55 65.48 L81.82 63.98 L84.09 62.29 L86.36 60.69 L88.64 59.49 L90.91 58.9 L93.18 59.02 L95.45 59.83 L97.73 61.2 L100 62.86" pathLength="1" opacity="1"/>
    <path id="c-7" d="M0 71.43 L2.27 73.09 L4.55 74.45 L6.82 75.27 L9.09 75.39 L11.36 74.79 L13.64 73.59 L15.91 72 L18.18 70.3 L20.45 68.81 L22.73 67.79 L25 67.43 L27.27 67.79 L29.55 68.81 L31.82 70.3 L34.09 72 L36.36 73.59 L38.64 74.79 L40.91 75.39 L43.18 75.27 L45.45 74.45 L47.73 73.09 L50 71.43 L52.27 69.77 L54.55 68.41 L56.82 67.59 L59.09 67.47 L61.36 68.06 L63.64 69.27 L65.91 70.86 L68.18 72.56 L70.45 74.05 L72.73 75.07 L75 75.43 L77.27 75.07 L79.55 74.05 L81.82 72.56 L84.09 70.86 L86.36 69.27 L88.64 68.06 L90.91 67.47 L93.18 67.59 L95.45 68.41 L97.73 69.77 L100 71.43" pathLength="1" opacity="0.5"/>
  </g>
</svg>
