<svg viewBox="0 0 100 100" xmlns="http://www.w3.org/2000/svg">
  <!-- current-water-01 | topografia | agua | animar: deslocamento de fase suave -->
  <defs>
    <style>
      :root { --vds-gold: #c9a15e; }
    </style>
  </defs>
  <g id="current" fill="none" stroke="var(--vds-gold, #c9a15e)" stroke-width="0.85" stroke-linecap="round" stroke-linejoin="round">
    <path id="c-1" d="M0 20 L2.27 21.97 L4.55 23.78 L6.82 25.29 L9.09 26.37 L11.36 26.93 L13.64 26.93 L15.91 26.37 L18.18 25.29 L20.45 23.78 L22.73 21.97 L25 20 L27.27 18.03 L29.55 16.22 L31.82 14.71 L34.09 13.63 L36.36 13.07 L38.64 13.07 L40.91 13.63 L43.18 14.71 L45.45 16.22 L47.73 18.03 L50 20 L52.27 21.97 L54.55 23.78 L56.82 25.29 L59.09 26.37 L61.36 26.93 L63.64 26.93 L65.91 26.37 L68.18 25.29 L70.45 23.78 L72.73 21.97 L75 20 L77.27 18.03 L79.55 16.22 L81.82 14.71 L84.09 13.63 L86.36 13.07 L88.64 13.07 L90.91 13.63 L93.18 14.71 L95.45 16.22 L97.73 18.03 L100 20" pathLength="1" opacity="0.5"/>
    <path id="c-2" d="M0 30 L2.27 31.97 L4.55 33.78 L6.82 35.29 L9.09 36.37 L11.36 36.93 L13.64 36.93 L15.91 36.37 L18.18 35.29 L20.45 33.78 L22.73 31.97 L25 30 L27.27 28.03 L29.55 26.22 L31.82 24.71 L34.09 23.63 L36.36 23.07 L38.64 23.07 L40.91 23.63 L43.18 24.71 L45.45 26.22 L47.73 28.03 L50 30 L52.27 31.97 L54.55 33.78 L56.82 35.29 L59.09 36.37 L61.36 36.93 L63.64 36.93 L65.91 36.37 L68.18 35.29 L70.45 33.78 L72.73 31.97 L75 30 L77.27 28.03 L79.55 26.22 L81.82 24.71 L84.09 23.63 L86.36 23.07 L88.64 23.07 L90.91 23.63 L93.18 24.71 L95.45 26.22 L97.73 28.03 L100 30" pathLength="1" opacity="1"/>
    <path id="c-3" d="M0 40 L2.27 41.97 L4.55 43.78 L6.82 45.29 L9.09 46.37 L11.36 46.93 L13.64 46.93 L15.91 46.37 L18.18 45.29 L20.45 43.78 L22.73 41.97 L25 40 L27.27 38.03 L29.55 36.22 L31.82 34.71 L34.09 33.63 L36.36 33.07 L38.64 33.07 L40.91 33.63 L43.18 34.71 L45.45 36.22 L47.73 38.03 L50 40 L52.27 41.97 L54.55 43.78 L56.82 45.29 L59.09 46.37 L61.36 46.93 L63.64 46.93 L65.91 46.37 L68.18 45.29 L70.45 43.78 L72.73 41.97 L75 40 L77.27 38.03 L79.55 36.22 L81.82 34.71 L84.09 33.63 L86.36 33.07 L88.64 33.07 L90.91 33.63 L93.18 34.71 L95.45 36.22 L97.73 38.03 L100 40" pathLength="1" opacity="0.5"/>
    <path id="c-4" d="M0 50 L2.27 51.97 L4.55 53.78 L6.82 55.29 L9.09 56.37 L11.36 56.93 L13.64 56.93 L15.91 56.37 L18.18 55.29 L20.45 53.78 L22.73 51.97 L25 50 L27.27 48.03 L29.55 46.22 L31.82 44.71 L34.09 43.63 L36.36 43.07 L38.64 43.07 L40.91 43.63 L43.18 44.71 L45.45 46.22 L47.73 48.03 L50 50 L52.27 51.97 L54.55 53.78 L56.82 55.29 L59.09 56.37 L61.36 56.93 L63.64 56.93 L65.91 56.37 L68.18 55.29 L70.45 53.78 L72.73 51.97 L75 50 L77.27 48.03 L79.55 46.22 L81.82 44.71 L84.09 43.63 L86.36 43.07 L88.64 43.07 L90.91 43.63 L93.18 44.71 L95.45 46.22 L97.73 48.03 L100 50" pathLength="1" opacity="1"/>
    <path id="c-5" d="M0 60 L2.27 61.97 L4.55 63.78 L6.82 65.29 L9.09 66.37 L11.36 66.93 L13.64 66.93 L15.91 66.37 L18.18 65.29 L20.45 63.78 L22.73 61.97 L25 60 L27.27 58.03 L29.55 56.22 L31.82 54.71 L34.09 53.63 L36.36 53.07 L38.64 53.07 L40.91 53.63 L43.18 54.71 L45.45 56.22 L47.73 58.03 L50 60 L52.27 61.97 L54.55 63.78 L56.82 65.29 L59.09 66.37 L61.36 66.93 L63.64 66.93 L65.91 66.37 L68.18 65.29 L70.45 63.78 L72.73 61.97 L75 60 L77.27 58.03 L79.55 56.22 L81.82 54.71 L84.09 53.63 L86.36 53.07 L88.64 53.07 L90.91 53.63 L93.18 54.71 L95.45 56.22 L97.73 58.03 L100 60" pathLength="1" opacity="0.5"/>
    <path id="c-6" d="M0 70 L2.27 71.97 L4.55 73.78 L6.82 75.29 L9.09 76.37 L11.36 76.93 L13.64 76.93 L15.91 76.37 L18.18 75.29 L20.45 73.78 L22.73 71.97 L25 70 L27.27 68.03 L29.55 66.22 L31.82 64.71 L34.09 63.63 L36.36 63.07 L38.64 63.07 L40.91 63.63 L43.18 64.71 L45.45 66.22 L47.73 68.03 L50 70 L52.27 71.97 L54.55 73.78 L56.82 75.29 L59.09 76.37 L61.36 76.93 L63.64 76.93 L65.91 76.37 L68.18 75.29 L70.45 73.78 L72.73 71.97 L75 70 L77.27 68.03 L79.55 66.22 L81.82 64.71 L84.09 63.63 L86.36 63.07 L88.64 63.07 L90.91 63.63 L93.18 64.71 L95.45 66.22 L97.73 68.03 L100 70" pathLength="1" opacity="1"/>
  </g>
</svg>
