<svg viewBox="0 0 100 100" xmlns="http://www.w3.org/2000/svg">
  <!-- current-smoke-01 | topografia | fumo | animar: subida lenta e ondulada -->
  <defs>
    <style>
      :root { --vds-gold: #c9a15e; }
    </style>
  </defs>
  <g id="current" fill="none" stroke="var(--vds-gold, #c9a15e)" stroke-width="0.85" stroke-linecap="round" stroke-linejoin="round">
    <path id="c-1" d="M0 20 L2.27 21.88 L4.55 23.7 L6.82 25.41 L9.09 26.96 L11.36 28.31 L13.64 29.42 L15.91 30.25 L18.18 30.78 L20.45 31 L22.73 30.89 L25 30.46 L27.27 29.73 L29.55 28.71 L31.82 27.44 L34.09 25.95 L36.36 24.28 L38.64 22.49 L40.91 20.63 L43.18 18.75 L45.45 16.9 L47.73 15.15 L50 13.53 L52.27 12.11 L54.55 10.92 L56.82 9.99 L59.09 9.36 L61.36 9.04 L63.64 9.04 L65.91 9.36 L68.18 9.99 L70.45 10.92 L72.73 12.11 L75 13.53 L77.27 15.15 L79.55 16.9 L81.82 18.75 L84.09 20.63 L86.36 22.49 L88.64 24.28 L90.91 25.95 L93.18 27.44 L95.45 28.71 L97.73 29.73 L100 30.46" pathLength="1" opacity="0.5"/>
    <path id="c-2" d="M0 32 L2.27 33.88 L4.55 35.7 L6.82 37.41 L9.09 38.96 L11.36 40.31 L13.64 41.42 L15.91 42.25 L18.18 42.78 L20.45 43 L22.73 42.89 L25 42.46 L27.27 41.73 L29.55 40.71 L31.82 39.44 L34.09 37.95 L36.36 36.28 L38.64 34.49 L40.91 32.63 L43.18 30.75 L45.45 28.9 L47.73 27.15 L50 25.53 L52.27 24.11 L54.55 22.92 L56.82 21.99 L59.09 21.36 L61.36 21.04 L63.64 21.04 L65.91 21.36 L68.18 21.99 L70.45 22.92 L72.73 24.11 L75 25.53 L77.27 27.15 L79.55 28.9 L81.82 30.75 L84.09 32.63 L86.36 34.49 L88.64 36.28 L90.91 37.95 L93.18 39.44 L95.45 40.71 L97.73 41.73 L100 42.46" pathLength="1" opacity="1"/>
    <path id="c-3" d="M0 44 L2.27 45.88 L4.55 47.7 L6.82 49.41 L9.09 50.96 L11.36 52.31 L13.64 53.42 L15.91 54.25 L18.18 54.78 L20.45 55 L22.73 54.89 L25 54.46 L27.27 53.73 L29.55 52.71 L31.82 51.44 L34.09 49.95 L36.36 48.28 L38.64 46.49 L40.91 44.63 L43.18 42.75 L45.45 40.9 L47.73 39.15 L50 37.53 L52.27 36.11 L54.55 34.92 L56.82 33.99 L59.09 33.36 L61.36 33.04 L63.64 33.04 L65.91 33.36 L68.18 33.99 L70.45 34.92 L72.73 36.11 L75 37.53 L77.27 39.15 L79.55 40.9 L81.82 42.75 L84.09 44.63 L86.36 46.49 L88.64 48.28 L90.91 49.95 L93.18 51.44 L95.45 52.71 L97.73 53.73 L100 54.46" pathLength="1" opacity="0.5"/>
    <path id="c-4" d="M0 56 L2.27 57.88 L4.55 59.7 L6.82 61.41 L9.09 62.96 L11.36 64.31 L13.64 65.42 L15.91 66.25 L18.18 66.78 L20.45 67 L22.73 66.89 L25 66.46 L27.27 65.73 L29.55 64.71 L31.82 63.44 L34.09 61.95 L36.36 60.28 L38.64 58.49 L40.91 56.63 L43.18 54.75 L45.45 52.9 L47.73 51.15 L50 49.53 L52.27 48.11 L54.55 46.92 L56.82 45.99 L59.09 45.36 L61.36 45.04 L63.64 45.04 L65.91 45.36 L68.18 45.99 L70.45 46.92 L72.73 48.11 L75 49.53 L77.27 51.15 L79.55 52.9 L81.82 54.75 L84.09 56.63 L86.36 58.49 L88.64 60.28 L90.91 61.95 L93.18 63.44 L95.45 64.71 L97.73 65.73 L100 66.46" pathLength="1" opacity="1"/>
    <path id="c-5" d="M0 68 L2.27 69.88 L4.55 71.7 L6.82 73.41 L9.09 74.96 L11.36 76.31 L13.64 77.42 L15.91 78.25 L18.18 78.78 L20.45 79 L22.73 78.89 L25 78.46 L27.27 77.73 L29.55 76.71 L31.82 75.44 L34.09 73.95 L36.36 72.28 L38.64 70.49 L40.91 68.63 L43.18 66.75 L45.45 64.9 L47.73 63.15 L50 61.53 L52.27 60.11 L54.55 58.92 L56.82 57.99 L59.09 57.36 L61.36 57.04 L63.64 57.04 L65.91 57.36 L68.18 57.99 L70.45 58.92 L72.73 60.11 L75 61.53 L77.27 63.15 L79.55 64.9 L81.82 66.75 L84.09 68.63 L86.36 70.49 L88.64 72.28 L90.91 73.95 L93.18 75.44 L95.45 76.71 L97.73 77.73 L100 78.46" pathLength="1" opacity="0.5"/>
  </g>
</svg>
