<svg viewBox="0 0 100 100" xmlns="http://www.w3.org/2000/svg">
  <!-- flow-diagonal-01 | topografia | diagonais | animar: ondulacao lenta -->
  <defs>
    <style>
      :root { --vds-gold: #c9a15e; }
    </style>
  </defs>
  <g id="flow" fill="none" stroke="var(--vds-gold, #c9a15e)" stroke-width="0.9" stroke-linecap="round" stroke-linejoin="round"  transform="rotate(-22 50 50)">
    <path id="l-1" d="M0 18 L2.27 19.06 L4.55 20.08 L6.82 21 L9.09 21.78 L11.36 22.39 L13.64 22.8 L15.91 22.99 L18.18 22.95 L20.45 22.68 L22.73 22.21 L25 21.54 L27.27 20.7 L29.55 19.75 L31.82 18.71 L34.09 17.64 L36.36 16.59 L38.64 15.6 L40.91 14.73 L43.18 14 L45.45 13.45 L47.73 13.11 L50 13 L52.27 13.11 L54.55 13.45 L56.82 14 L59.09 14.73 L61.36 15.6 L63.64 16.59 L65.91 17.64 L68.18 18.71 L70.45 19.75 L72.73 20.7 L75 21.54 L77.27 22.21 L79.55 22.68 L81.82 22.95 L84.09 22.99 L86.36 22.8 L88.64 22.39 L90.91 21.78 L93.18 21 L95.45 20.08 L97.73 19.06 L100 18" pathLength="1"/>
    <path id="l-2" d="M0 31 L2.27 32.06 L4.55 33.08 L6.82 34 L9.09 34.78 L11.36 35.39 L13.64 35.8 L15.91 35.99 L18.18 35.95 L20.45 35.68 L22.73 35.21 L25 34.54 L27.27 33.7 L29.55 32.75 L31.82 31.71 L34.09 30.64 L36.36 29.59 L38.64 28.6 L40.91 27.73 L43.18 27 L45.45 26.45 L47.73 26.11 L50 26 L52.27 26.11 L54.55 26.45 L56.82 27 L59.09 27.73 L61.36 28.6 L63.64 29.59 L65.91 30.64 L68.18 31.71 L70.45 32.75 L72.73 33.7 L75 34.54 L77.27 35.21 L79.55 35.68 L81.82 35.95 L84.09 35.99 L86.36 35.8 L88.64 35.39 L90.91 34.78 L93.18 34 L95.45 33.08 L97.73 32.06 L100 31" pathLength="1"/>
    <path id="l-3" d="M0 44 L2.27 45.06 L4.55 46.08 L6.82 47 L9.09 47.78 L11.36 48.39 L13.64 48.8 L15.91 48.99 L18.18 48.95 L20.45 48.68 L22.73 48.21 L25 47.54 L27.27 46.7 L29.55 45.75 L31.82 44.71 L34.09 43.64 L36.36 42.59 L38.64 41.6 L40.91 40.73 L43.18 40 L45.45 39.45 L47.73 39.11 L50 39 L52.27 39.11 L54.55 39.45 L56.82 40 L59.09 40.73 L61.36 41.6 L63.64 42.59 L65.91 43.64 L68.18 44.71 L70.45 45.75 L72.73 46.7 L75 47.54 L77.27 48.21 L79.55 48.68 L81.82 48.95 L84.09 48.99 L86.36 48.8 L88.64 48.39 L90.91 47.78 L93.18 47 L95.45 46.08 L97.73 45.06 L100 44" pathLength="1"/>
    <path id="l-4" d="M0 57 L2.27 58.06 L4.55 59.08 L6.82 60 L9.09 60.78 L11.36 61.39 L13.64 61.8 L15.91 61.99 L18.18 61.95 L20.45 61.68 L22.73 61.21 L25 60.54 L27.27 59.7 L29.55 58.75 L31.82 57.71 L34.09 56.64 L36.36 55.59 L38.64 54.6 L40.91 53.73 L43.18 53 L45.45 52.45 L47.73 52.11 L50 52 L52.27 52.11 L54.55 52.45 L56.82 53 L59.09 53.73 L61.36 54.6 L63.64 55.59 L65.91 56.64 L68.18 57.71 L70.45 58.75 L72.73 59.7 L75 60.54 L77.27 61.21 L79.55 61.68 L81.82 61.95 L84.09 61.99 L86.36 61.8 L88.64 61.39 L90.91 60.78 L93.18 60 L95.45 59.08 L97.73 58.06 L100 57" pathLength="1"/>
    <path id="l-5" d="M0 70 L2.27 71.06 L4.55 72.08 L6.82 73 L9.09 73.78 L11.36 74.39 L13.64 74.8 L15.91 74.99 L18.18 74.95 L20.45 74.68 L22.73 74.21 L25 73.54 L27.27 72.7 L29.55 71.75 L31.82 70.71 L34.09 69.64 L36.36 68.59 L38.64 67.6 L40.91 66.73 L43.18 66 L45.45 65.45 L47.73 65.11 L50 65 L52.27 65.11 L54.55 65.45 L56.82 66 L59.09 66.73 L61.36 67.6 L63.64 68.59 L65.91 69.64 L68.18 70.71 L70.45 71.75 L72.73 72.7 L75 73.54 L77.27 74.21 L79.55 74.68 L81.82 74.95 L84.09 74.99 L86.36 74.8 L88.64 74.39 L90.91 73.78 L93.18 73 L95.45 72.08 L97.73 71.06 L100 70" pathLength="1"/>
    <path id="l-6" d="M0 83 L2.27 84.06 L4.55 85.08 L6.82 86 L9.09 86.78 L11.36 87.39 L13.64 87.8 L15.91 87.99 L18.18 87.95 L20.45 87.68 L22.73 87.21 L25 86.54 L27.27 85.7 L29.55 84.75 L31.82 83.71 L34.09 82.64 L36.36 81.59 L38.64 80.6 L40.91 79.73 L43.18 79 L45.45 78.45 L47.73 78.11 L50 78 L52.27 78.11 L54.55 78.45 L56.82 79 L59.09 79.73 L61.36 80.6 L63.64 81.59 L65.91 82.64 L68.18 83.71 L70.45 84.75 L72.73 85.7 L75 86.54 L77.27 87.21 L79.55 87.68 L81.82 87.95 L84.09 87.99 L86.36 87.8 L88.64 87.39 L90.91 86.78 L93.18 86 L95.45 85.08 L97.73 84.06 L100 83" pathLength="1"/>
  </g>
</svg>
