<svg viewBox="0 0 100 100" xmlns="http://www.w3.org/2000/svg">
  <!-- flow-vertical-01 | topografia | verticais | animar: ondulacao lenta, deslocamento de fase -->
  <defs>
    <style>
      :root { --vds-gold: #c9a15e; }
    </style>
  </defs>
  <g id="flow" fill="none" stroke="var(--vds-gold, #c9a15e)" stroke-width="0.9" stroke-linecap="round" stroke-linejoin="round">
    <path id="l-1" d="M18 0 L19.06 2.27 L20.08 4.55 L21 6.82 L21.78 9.09 L22.39 11.36 L22.8 13.64 L22.99 15.91 L22.95 18.18 L22.68 20.45 L22.21 22.73 L21.54 25 L20.7 27.27 L19.75 29.55 L18.71 31.82 L17.64 34.09 L16.59 36.36 L15.6 38.64 L14.73 40.91 L14 43.18 L13.45 45.45 L13.11 47.73 L13 50 L13.11 52.27 L13.45 54.55 L14 56.82 L14.73 59.09 L15.6 61.36 L16.59 63.64 L17.64 65.91 L18.71 68.18 L19.75 70.45 L20.7 72.73 L21.54 75 L22.21 77.27 L22.68 79.55 L22.95 81.82 L22.99 84.09 L22.8 86.36 L22.39 88.64 L21.78 90.91 L21 93.18 L20.08 95.45 L19.06 97.73 L18 100" pathLength="1"/>
    <path id="l-2" d="M31 0 L32.06 2.27 L33.08 4.55 L34 6.82 L34.78 9.09 L35.39 11.36 L35.8 13.64 L35.99 15.91 L35.95 18.18 L35.68 20.45 L35.21 22.73 L34.54 25 L33.7 27.27 L32.75 29.55 L31.71 31.82 L30.64 34.09 L29.59 36.36 L28.6 38.64 L27.73 40.91 L27 43.18 L26.45 45.45 L26.11 47.73 L26 50 L26.11 52.27 L26.45 54.55 L27 56.82 L27.73 59.09 L28.6 61.36 L29.59 63.64 L30.64 65.91 L31.71 68.18 L32.75 70.45 L33.7 72.73 L34.54 75 L35.21 77.27 L35.68 79.55 L35.95 81.82 L35.99 84.09 L35.8 86.36 L35.39 88.64 L34.78 90.91 L34 93.18 L33.08 95.45 L32.06 97.73 L31 100" pathLength="1"/>
    <path id="l-3" d="M44 0 L45.06 2.27 L46.08 4.55 L47 6.82 L47.78 9.09 L48.39 11.36 L48.8 13.64 L48.99 15.91 L48.95 18.18 L48.68 20.45 L48.21 22.73 L47.54 25 L46.7 27.27 L45.75 29.55 L44.71 31.82 L43.64 34.09 L42.59 36.36 L41.6 38.64 L40.73 40.91 L40 43.18 L39.45 45.45 L39.11 47.73 L39 50 L39.11 52.27 L39.45 54.55 L40 56.82 L40.73 59.09 L41.6 61.36 L42.59 63.64 L43.64 65.91 L44.71 68.18 L45.75 70.45 L46.7 72.73 L47.54 75 L48.21 77.27 L48.68 79.55 L48.95 81.82 L48.99 84.09 L48.8 86.36 L48.39 88.64 L47.78 90.91 L47 93.18 L46.08 95.45 L45.06 97.73 L44 100" pathLength="1"/>
    <path id="l-4" d="M57 0 L58.06 2.27 L59.08 4.55 L60 6.82 L60.78 9.09 L61.39 11.36 L61.8 13.64 L61.99 15.91 L61.95 18.18 L61.68 20.45 L61.21 22.73 L60.54 25 L59.7 27.27 L58.75 29.55 L57.71 31.82 L56.64 34.09 L55.59 36.36 L54.6 38.64 L53.73 40.91 L53 43.18 L52.45 45.45 L52.11 47.73 L52 50 L52.11 52.27 L52.45 54.55 L53 56.82 L53.73 59.09 L54.6 61.36 L55.59 63.64 L56.64 65.91 L57.71 68.18 L58.75 70.45 L59.7 72.73 L60.54 75 L61.21 77.27 L61.68 79.55 L61.95 81.82 L61.99 84.09 L61.8 86.36 L61.39 88.64 L60.78 90.91 L60 93.18 L59.08 95.45 L58.06 97.73 L57 100" pathLength="1"/>
    <path id="l-5" d="M70 0 L71.06 2.27 L72.08 4.55 L73 6.82 L73.78 9.09 L74.39 11.36 L74.8 13.64 L74.99 15.91 L74.95 18.18 L74.68 20.45 L74.21 22.73 L73.54 25 L72.7 27.27 L71.75 29.55 L70.71 31.82 L69.64 34.09 L68.59 36.36 L67.6 38.64 L66.73 40.91 L66 43.18 L65.45 45.45 L65.11 47.73 L65 50 L65.11 52.27 L65.45 54.55 L66 56.82 L66.73 59.09 L67.6 61.36 L68.59 63.64 L69.64 65.91 L70.71 68.18 L71.75 70.45 L72.7 72.73 L73.54 75 L74.21 77.27 L74.68 79.55 L74.95 81.82 L74.99 84.09 L74.8 86.36 L74.39 88.64 L73.78 90.91 L73 93.18 L72.08 95.45 L71.06 97.73 L70 100" pathLength="1"/>
    <path id="l-6" d="M83 0 L84.06 2.27 L85.08 4.55 L86 6.82 L86.78 9.09 L87.39 11.36 L87.8 13.64 L87.99 15.91 L87.95 18.18 L87.68 20.45 L87.21 22.73 L86.54 25 L85.7 27.27 L84.75 29.55 L83.71 31.82 L82.64 34.09 L81.59 36.36 L80.6 38.64 L79.73 40.91 L79 43.18 L78.45 45.45 L78.11 47.73 L78 50 L78.11 52.27 L78.45 54.55 L79 56.82 L79.73 59.09 L80.6 61.36 L81.59 63.64 L82.64 65.91 L83.71 68.18 L84.75 70.45 L85.7 72.73 L86.54 75 L87.21 77.27 L87.68 79.55 L87.95 81.82 L87.99 84.09 L87.8 86.36 L87.39 88.64 L86.78 90.91 L86 93.18 L85.08 95.45 L84.06 97.73 L83 100" pathLength="1"/>
  </g>
</svg>
