<svg viewBox="0 0 100 100" xmlns="http://www.w3.org/2000/svg">
  <!-- flow-spiral-01 | topografia | espiral | animar: traco a desenhar-se para dentro -->
  <defs>
    <style>
      :root { --vds-gold: #c9a15e; }
    </style>
  </defs>
  <g id="flow" fill="none" stroke="var(--vds-gold, #c9a15e)" stroke-width="1.1" stroke-linecap="round" stroke-linejoin="round">
    <path id="spiral" d="M52 50 L52.16 50.18 L52.3 50.39 L52.42 50.62 L52.52 50.88 L52.59 51.15 L52.63 51.45 L52.64 51.75 L52.61 52.07 L52.55 52.4 L52.45 52.72 L52.32 53.05 L52.14 53.38 L51.93 53.69 L51.68 53.99 L51.39 54.28 L51.07 54.54 L50.71 54.78 L50.31 54.99 L49.89 55.17 L49.44 55.3 L48.97 55.4 L48.48 55.46 L47.97 55.47 L47.45 55.43 L46.92 55.34 L46.39 55.2 L45.86 55.01 L45.34 54.76 L44.83 54.47 L44.34 54.11 L43.87 53.71 L43.43 53.26 L43.03 52.76 L42.66 52.22 L42.34 51.63 L42.06 51 L41.84 50.34 L41.67 49.65 L41.57 48.93 L41.52 48.2 L41.54 47.45 L41.63 46.69 L41.79 45.92 L42.02 45.17 L42.31 44.42 L42.68 43.68 L43.12 42.97 L43.63 42.29 L44.2 41.65 L44.83 41.05 L45.53 40.5 L46.28 40 L47.09 39.57 L47.94 39.19 L48.83 38.89 L49.76 38.67 L50.72 38.52 L51.7 38.46 L52.7 38.48 L53.71 38.59 L54.71 38.78 L55.71 39.07 L56.7 39.45 L57.66 39.91 L58.59 40.46 L59.48 41.1 L60.32 41.82 L61.11 42.62 L61.83 43.5 L62.49 44.44 L63.06 45.45 L63.56 46.52 L63.97 47.64 L64.28 48.8 L64.5 50 L64.62 51.23 L64.63 52.47 L64.53 53.73 L64.32 54.99 L64.01 56.24 L63.58 57.47 L63.05 58.67 L62.41 59.83 L61.66 60.95 L60.82 62.01 L59.88 63.01 L58.84 63.93 L57.72 64.77 L56.52 65.52 L55.25 66.17 L53.92 66.71 L52.53 67.15 L51.1 67.47 L49.63 67.66 L48.14 67.74 L46.63 67.68 L45.11 67.5 L43.61 67.18 L42.12 66.74 L40.67 66.17 L39.25 65.46 L37.89 64.64 L36.59 63.69 L35.36 62.63 L34.22 61.46 L33.18 60.19 L32.24 58.82 L31.4 57.36 L30.69 55.83 L30.11 54.23 L29.66 52.57 L29.35 50.87 L29.18 49.13 L29.17 47.37 L29.3 45.6 L29.58 43.83 L30.01 42.09 L30.59 40.37 L31.32 38.69 L32.2 37.07 L33.22 35.52 L34.37 34.04 L35.66 32.66 L37.06 31.39 L38.58 30.23 L40.21 29.19 L41.92 28.29 L43.73 27.53 L45.6 26.92 L47.53 26.46 L49.5 26.17 L51.51 26.05 L53.53 26.09 L55.56 26.31 L57.57 26.7 L59.56 27.26 L61.51 27.99 L63.4 28.89 L65.22 29.95 L66.95 31.17 L68.59 32.54 L70.11 34.06 L71.52 35.7 L72.78 37.47 L73.9 39.36 L74.87 41.34 L75.67 43.41 L76.29 45.55 L76.74 47.75 L77 50 L77.07 52.27 L76.95 54.56 L76.64 56.84 L76.13 59.1 L75.43 61.32 L74.54 63.49 L73.46 65.59 L72.2 67.6 L70.78 69.51 L69.18 71.3 L67.43 72.97 L65.54 74.49 L63.51 75.85 L61.37 77.04 L59.12 78.06 L56.77 78.88 L54.36 79.51 L51.88 79.94 L49.37 80.16 L46.83 80.17 L44.28 79.96 L41.75 79.54 L39.25 78.9 L36.8 78.05 L34.42 76.99 L32.12 75.73 L29.92 74.27 L27.84 72.62 L25.9 70.8 L24.11 68.81 L22.49 66.66 L21.04 64.38 L19.78 61.96 L18.73 59.44 L17.88 56.83 L17.26 54.14 L16.86 51.39 L16.7 48.6 L16.76 45.8 L17.07 43 L17.61 40.22 L18.39 37.48 L19.4 34.81 L20.63 32.21 L22.09 29.72 L23.76 27.35 L25.63 25.11 L27.69 23.03 L29.93 21.12 L32.33 19.4 L34.88 17.88 L37.57 16.57 L40.36 15.49 L43.25 14.64 L46.22 14.03 L49.24 13.67 L52.29 13.57 L55.36 13.73 L58.41 14.14 L61.43 14.81 L64.4 15.74 L67.3 16.92 L70.09 18.34 L72.77 20 L75.32 21.88 L77.7 23.99 L79.91 26.29 L81.93 28.79 L83.74 31.45 L85.32 34.27 L86.67 37.23 L87.77 40.3 L88.62 43.47 L89.2 46.71 L89.5 50 L89.53 53.32 L89.28 56.64 L88.74 59.95 L87.93 63.21 L86.85 66.41 L85.49 69.51 L83.87 72.5 L82 75.36 L79.89 78.07 L77.55 80.59 L74.99 82.92 L72.24 85.04 L69.3 86.93 L66.21 88.56 L62.98 89.94" pathLength="1"/>
  </g>
</svg>
