<svg viewBox="0 0 100 100" xmlns="http://www.w3.org/2000/svg">
  <!-- flow-s-01 | topografia | em S | animar: ondulacao lenta -->
  <defs>
    <style>
      :root { --vds-gold: #c9a15e; }
    </style>
  </defs>
  <g id="flow" fill="none" stroke="var(--vds-gold, #c9a15e)" stroke-width="0.9" stroke-linecap="round" stroke-linejoin="round">
    <path id="l-1" d="M22 0 L23.42 2.27 L24.82 4.55 L26.15 6.82 L27.41 9.09 L28.55 11.36 L29.56 13.64 L30.41 15.91 L31.1 18.18 L31.59 20.45 L31.9 22.73 L32 25 L31.9 27.27 L31.59 29.55 L31.1 31.82 L30.41 34.09 L29.56 36.36 L28.55 38.64 L27.41 40.91 L26.15 43.18 L24.82 45.45 L23.42 47.73 L22 50 L20.58 52.27 L19.18 54.55 L17.85 56.82 L16.59 59.09 L15.45 61.36 L14.44 63.64 L13.59 65.91 L12.9 68.18 L12.41 70.45 L12.1 72.73 L12 75 L12.1 77.27 L12.41 79.55 L12.9 81.82 L13.59 84.09 L14.44 86.36 L15.45 88.64 L16.59 90.91 L17.85 93.18 L19.18 95.45 L20.58 97.73 L22 100" pathLength="1"/>
    <path id="l-2" d="M36 0 L37.42 2.27 L38.82 4.55 L40.15 6.82 L41.41 9.09 L42.55 11.36 L43.56 13.64 L44.41 15.91 L45.1 18.18 L45.59 20.45 L45.9 22.73 L46 25 L45.9 27.27 L45.59 29.55 L45.1 31.82 L44.41 34.09 L43.56 36.36 L42.55 38.64 L41.41 40.91 L40.15 43.18 L38.82 45.45 L37.42 47.73 L36 50 L34.58 52.27 L33.18 54.55 L31.85 56.82 L30.59 59.09 L29.45 61.36 L28.44 63.64 L27.59 65.91 L26.9 68.18 L26.41 70.45 L26.1 72.73 L26 75 L26.1 77.27 L26.41 79.55 L26.9 81.82 L27.59 84.09 L28.44 86.36 L29.45 88.64 L30.59 90.91 L31.85 93.18 L33.18 95.45 L34.58 97.73 L36 100" pathLength="1"/>
    <path id="l-3" d="M50 0 L51.42 2.27 L52.82 4.55 L54.15 6.82 L55.41 9.09 L56.55 11.36 L57.56 13.64 L58.41 15.91 L59.1 18.18 L59.59 20.45 L59.9 22.73 L60 25 L59.9 27.27 L59.59 29.55 L59.1 31.82 L58.41 34.09 L57.56 36.36 L56.55 38.64 L55.41 40.91 L54.15 43.18 L52.82 45.45 L51.42 47.73 L50 50 L48.58 52.27 L47.18 54.55 L45.85 56.82 L44.59 59.09 L43.45 61.36 L42.44 63.64 L41.59 65.91 L40.9 68.18 L40.41 70.45 L40.1 72.73 L40 75 L40.1 77.27 L40.41 79.55 L40.9 81.82 L41.59 84.09 L42.44 86.36 L43.45 88.64 L44.59 90.91 L45.85 93.18 L47.18 95.45 L48.58 97.73 L50 100" pathLength="1"/>
    <path id="l-4" d="M64 0 L65.42 2.27 L66.82 4.55 L68.15 6.82 L69.41 9.09 L70.55 11.36 L71.56 13.64 L72.41 15.91 L73.1 18.18 L73.59 20.45 L73.9 22.73 L74 25 L73.9 27.27 L73.59 29.55 L73.1 31.82 L72.41 34.09 L71.56 36.36 L70.55 38.64 L69.41 40.91 L68.15 43.18 L66.82 45.45 L65.42 47.73 L64 50 L62.58 52.27 L61.18 54.55 L59.85 56.82 L58.59 59.09 L57.45 61.36 L56.44 63.64 L55.59 65.91 L54.9 68.18 L54.41 70.45 L54.1 72.73 L54 75 L54.1 77.27 L54.41 79.55 L54.9 81.82 L55.59 84.09 L56.44 86.36 L57.45 88.64 L58.59 90.91 L59.85 93.18 L61.18 95.45 L62.58 97.73 L64 100" pathLength="1"/>
    <path id="l-5" d="M78 0 L79.42 2.27 L80.82 4.55 L82.15 6.82 L83.41 9.09 L84.55 11.36 L85.56 13.64 L86.41 15.91 L87.1 18.18 L87.59 20.45 L87.9 22.73 L88 25 L87.9 27.27 L87.59 29.55 L87.1 31.82 L86.41 34.09 L85.56 36.36 L84.55 38.64 L83.41 40.91 L82.15 43.18 L80.82 45.45 L79.42 47.73 L78 50 L76.58 52.27 L75.18 54.55 L73.85 56.82 L72.59 59.09 L71.45 61.36 L70.44 63.64 L69.59 65.91 L68.9 68.18 L68.41 70.45 L68.1 72.73 L68 75 L68.1 77.27 L68.41 79.55 L68.9 81.82 L69.59 84.09 L70.44 86.36 L71.45 88.64 L72.59 90.91 L73.85 93.18 L75.18 95.45 L76.58 97.73 L78 100" pathLength="1"/>
  </g>
</svg>
