<svg viewBox="0 0 300 60" xmlns="http://www.w3.org/2000/svg">
  <g stroke="currentColor" stroke-width="1.6" stroke-linecap="round">
    <line x1="46" y1="30" x2="112" y2="30"/>
    <line x1="188" y1="30" x2="254" y2="30"/>
  </g>
  <g transform="translate(130,10) scale(0.4)">
  <g id="punho" fill="none" stroke="currentColor" stroke-width="4" stroke-linecap="round" stroke-linejoin="round">
    <path d="M36 50 L36 44 Q36 40 40 40 Q44 40 44 44 L44 50"/>
    <path d="M44 50 L44 42 Q44 38 48 38 Q52 38 52 42 L52 50"/>
    <path d="M52 50 L52 42 Q52 38 56 38 Q60 38 60 42 L60 50"/>
    <path d="M60 50 L60 44 Q60 40 64 40 Q68 40 68 44 L68 56"/>
    <path d="M36 50 L36 68 Q36 80 50 80 Q68 80 68 66 L68 56"/>
    <path d="M36 58 Q28 56 28 64 Q29 71 38 70"/>
  </g>
</g></svg>